<?xml version="1.0" standalone="no"?>
<!DOCTYPE svg PUBLIC "-//W3C//DTD SVG 20010904//EN"
 "http://www.w3.org/TR/2001/REC-SVG-20010904/DTD/svg10.dtd">
<svg version="1.0" xmlns="http://www.w3.org/2000/svg"
 width="700.000000pt" height="700.000000pt" viewBox="0 0 700.000000 700.000000"
 preserveAspectRatio="xMidYMid meet">
<metadata>
Created by potrace 1.14, written by Peter Selinger 2001-2017
</metadata>
<g transform="translate(0.000000,700.000000) scale(0.100000,-0.100000)"
fill="#000000" stroke="none">
<path d="M925 6984 c-88 -14 -230 -61 -310 -102 -256 -129 -458 -361 -554
-634 -65 -186 -61 -13 -61 -2743 0 -2726 -3 -2569 61 -2751 57 -163 130 -283
244 -403 124 -131 269 -226 435 -285 198 -70 12 -66 2760 -66 2236 0 2486 2
2571 16 240 41 451 154 620 331 157 164 254 359 293 582 14 85 16 335 16 2571
0 2236 -2 2486 -16 2571 -39 223 -136 418 -293 582 -169 177 -388 294 -625
332 -130 21 -5015 21 -5141 -1z m2729 -2077 c82 -364 150 -663 151 -665 1 -1
247 152 546 340 299 189 562 355 584 368 l40 24 -21 -34 c-12 -19 -177 -282
-368 -584 -191 -302 -345 -549 -344 -551 2 -1 301 -69 666 -151 364 -81 662
-151 662 -154 0 -3 -298 -73 -662 -154 -365 -82 -664 -150 -666 -151 -1 -2
153 -249 344 -551 191 -302 356 -565 368 -584 l21 -34 -40 24 c-22 13 -285
179 -584 368 -299 188 -545 341 -546 340 -1 -2 -69 -301 -151 -665 -82 -365
-151 -663 -154 -663 -3 0 -72 298 -154 663 -82 364 -150 663 -151 665 -1 1
-255 -157 -564 -353 -310 -195 -572 -360 -584 -366 l-20 -12 20 34 c11 19 176
281 367 583 191 302 345 550 344 551 -2 1 -301 69 -665 151 -365 82 -663 151
-663 154 0 3 298 72 663 154 364 82 663 150 665 151 1 1 -153 249 -344 551
-191 302 -356 564 -367 583 l-20 34 20 -12 c12 -6 274 -171 584 -366 309 -196
563 -354 564 -353 1 2 69 301 151 666 82 364 151 662 154 662 3 0 72 -298 154
-663z"/>
</g>
</svg>
