<svg width="239" height="240" viewBox="0 0 239 240" fill="none" xmlns="http://www.w3.org/2000/svg">
<path d="M207.184 129.723C207.366 128.255 207.723 126.999 208.256 125.957C208.788 124.914 209.312 124.183 209.827 123.763L211.563 124.885C210.884 125.647 210.357 126.398 209.983 127.138C209.63 127.88 209.389 128.767 209.261 129.799C209.179 130.454 209.183 131.079 209.27 131.675C209.377 132.273 209.584 132.802 209.889 133.263C210.212 133.746 210.637 134.142 211.163 134.449C211.707 134.778 212.366 134.991 213.14 135.087C214.489 135.254 215.501 134.976 216.175 134.254C216.869 133.534 217.311 132.409 217.5 130.881L217.832 128.202L219.857 128.453L219.521 131.162C219.351 132.531 219.514 133.579 220.008 134.306C220.522 135.034 221.345 135.469 222.476 135.609C223.667 135.757 224.564 135.515 225.166 134.884C225.768 134.254 226.143 133.343 226.291 132.152C226.416 131.14 226.397 130.241 226.232 129.454C226.087 128.671 225.8 127.899 225.37 127.141L227.728 126.405C228.037 127.169 228.272 128.034 228.434 129.002C228.597 129.969 228.597 131.108 228.434 132.418C228.176 134.502 227.528 136.074 226.489 137.134C225.451 138.195 224.068 138.618 222.342 138.404C219.94 138.106 218.58 136.718 218.263 134.24C217.37 137.052 215.534 138.286 212.756 137.941C211.664 137.806 210.736 137.489 209.971 136.991C209.204 136.513 208.595 135.904 208.142 135.163C207.69 134.421 207.382 133.577 207.217 132.629C207.07 131.704 207.059 130.736 207.184 129.723Z" fill="black"/>
<path d="M218.556 161.048L210.165 153.913L207.56 160.27L218.556 161.048ZM205.45 160.119L208.556 152.54L203.599 148.337L204.509 146.116L221.208 160.352L219.752 163.905L197.854 162.356L198.958 159.663L205.45 160.119Z" fill="black"/>
<path d="M207.422 185.289L191.067 172.357L192.779 170.192L209.134 183.124L207.422 185.289ZM185.187 179.794L199.212 179.371L201.542 192.725L199.812 194.914L197.592 181.953L183.085 182.453L185.187 179.794Z" fill="black"/>
<path d="M181.545 207.64L178.19 197.149L172.62 201.17L181.545 207.64ZM170.908 199.926L177.549 195.133L175.561 188.946L177.507 187.541L184.165 208.45L181.051 210.697L163.277 197.813L165.637 196.109L170.908 199.926Z" fill="black"/>
<path d="M151.15 202.704C152.535 202.184 153.813 201.918 154.984 201.906C156.154 201.894 157.045 202.019 157.656 202.281L157.467 204.339C156.477 204.091 155.567 203.973 154.739 203.985C153.917 204.016 153.019 204.214 152.046 204.579C151.428 204.811 150.875 205.103 150.388 205.457C149.909 205.829 149.535 206.258 149.269 206.742C148.99 207.253 148.837 207.812 148.809 208.421C148.769 209.055 148.886 209.738 149.16 210.468C149.638 211.741 150.353 212.509 151.306 212.771C152.266 213.051 153.467 212.921 154.909 212.38L157.437 211.432L158.153 213.342L155.597 214.301C154.305 214.786 153.452 215.415 153.038 216.19C152.631 216.984 152.627 217.914 153.028 218.982C153.45 220.105 154.079 220.788 154.917 221.028C155.755 221.269 156.736 221.179 157.86 220.758C158.815 220.399 159.602 219.965 160.223 219.454C160.85 218.963 161.4 218.35 161.873 217.618L163.618 219.366C163.084 219.993 162.427 220.603 161.645 221.196C160.863 221.788 159.854 222.316 158.619 222.78C156.652 223.518 154.959 223.672 153.538 223.244C152.117 222.816 151.101 221.788 150.49 220.159C149.639 217.893 150.238 216.045 152.286 214.614C149.381 215.127 147.437 214.073 146.453 211.451C146.067 210.422 145.917 209.453 146.003 208.544C146.071 207.643 146.329 206.82 146.775 206.076C147.222 205.331 147.827 204.666 148.59 204.081C149.342 203.521 150.195 203.062 151.15 202.704Z" fill="black"/>
<path d="M128.585 227.24L131.022 216.499L124.182 217.133L128.585 227.24ZM123.339 215.193L131.494 214.436L132.924 208.097L135.314 207.875L130.43 229.268L126.606 229.623L117.839 209.497L120.736 209.228L123.339 215.193Z" fill="black"/>
<path d="M97.5398 225.692L100.923 207.188L103.667 207.69L100.284 226.193L106.009 227.24L105.643 229.247L91.4478 226.652L91.8147 224.645L97.5398 225.692Z" fill="black"/>
<path d="M78.9808 212.122L83.0139 203.742L80.0134 202.298C78.5897 201.613 77.3075 201.417 76.167 201.712C74.9997 202.016 74.0518 202.924 73.3233 204.438C72.6988 205.736 72.5822 206.9 72.9735 207.932C73.338 208.973 74.2502 209.845 75.7099 210.548L78.9808 212.122ZM77.3436 221.888L74.8567 220.691L78.0962 213.96L74.7171 212.334C72.5365 211.284 71.0904 210 70.3787 208.481C69.6489 206.954 69.7481 205.226 70.6761 203.297C71.1965 202.216 71.8188 201.361 72.5428 200.733C73.2582 200.123 74.057 199.709 74.9393 199.489C75.8215 199.27 76.7649 199.247 77.7694 199.42C78.7739 199.593 79.8168 199.939 80.898 200.46L86.3856 203.101L77.3436 221.888Z" fill="black"/>
<path d="M66.7137 48.3C65.5586 49.1929 64.3517 49.8226 63.0929 50.189C61.8219 50.5396 60.5551 50.634 59.2926 50.4724C58.0337 50.2828 56.8089 49.8266 55.6183 49.1039C54.4154 48.3653 53.3063 47.3394 52.291 46.0261C51.2513 44.6811 50.5274 43.3195 50.1192 41.9413C49.7269 40.5509 49.6213 39.2043 49.8023 37.9015C49.9833 36.5987 50.4334 35.366 51.1525 34.2034C51.8594 33.025 52.7983 31.9832 53.9692 31.078C54.9977 30.2829 55.9554 29.7069 56.8423 29.3499C57.745 28.9807 58.6273 28.7158 59.489 28.5552L60.3581 30.9548C59.4388 31.0082 58.5332 31.1775 57.6412 31.4625C56.7493 31.7475 55.8444 32.2448 54.9267 32.9542C54.1513 33.5536 53.5458 34.2745 53.11 35.117C52.662 35.9436 52.4032 36.8515 52.3337 37.8406C52.2799 38.8175 52.433 39.8493 52.7929 40.9362C53.1527 42.0231 53.7608 43.1203 54.6171 44.228C55.4488 45.3039 56.3234 46.1573 57.2407 46.788C58.1738 47.4064 59.1119 47.8188 60.055 48.0251C61.0017 48.2033 61.9394 48.1736 62.868 47.936C63.8125 47.6862 64.7119 47.2311 65.5664 46.5705C66.3259 45.9834 66.9523 45.3222 67.4457 44.5869C67.9426 43.8236 68.3528 43.0135 68.6763 42.1567L70.389 43.1458C70.2272 43.8523 69.8512 44.6738 69.2608 45.6105C68.6704 46.5473 67.8214 47.4437 66.7137 48.3Z" fill="black"/>
<path d="M79.3125 19.8932L79.9948 30.8865L86.3806 28.3529L79.3125 19.8932ZM87.7353 29.9778L80.1226 32.9982L80.5334 39.4839L78.3026 40.369L76.9711 18.4661L80.5405 17.0499L94.6155 33.8967L91.9106 34.9699L87.7353 29.9778Z" fill="black"/>
<path d="M109.576 9.40459C108.759 9.47094 108.032 9.41955 107.397 9.25044C106.781 9.07971 106.258 8.82114 105.829 8.47475C105.399 8.12836 105.064 7.70411 104.822 7.202C104.581 6.69989 104.436 6.14981 104.388 5.55178L106.929 5.34546C107.002 6.24251 107.255 6.88416 107.687 7.27042C108.14 7.65506 108.725 7.81826 109.443 7.76C110.14 7.70336 110.672 7.44955 111.036 6.99857C111.421 6.54596 111.577 5.87113 111.504 4.97408L114.046 4.76776C114.094 5.3658 114.04 5.93205 113.883 6.46653C113.725 7.00101 113.463 7.4738 113.095 7.88492C112.727 8.29604 112.253 8.63551 111.673 8.90334C111.092 9.17116 110.394 9.33825 109.576 9.40459ZM101.236 11.2253L103.987 11.002L105.38 28.1656L115.709 10.0505L118.37 9.83451L120.057 30.6162L117.276 30.8419L115.885 13.7083L105.584 31.791L102.923 32.007L101.236 11.2253Z" fill="black"/>
<path d="M143.157 14.8924L139.281 33.2986L136.551 32.7237L140.427 14.3174L134.732 13.118L135.153 11.1218L149.273 14.0956L148.852 16.0918L143.157 14.8924Z" fill="black"/>
</svg>
